<svg width="603" height="557" fill="none" xmlns="http://www.w3.org/2000/svg"><circle cx="95" cy="95" r="94" stroke="#2E2E2E" stroke-width="2"/><path d="M95 1h59.066C197.108 1 232 43.085 232 95s-34.892 94-77.934 94H95" stroke="#2E2E2E" stroke-width="2"/><path d="M192 13h58.204C292.617 13 327 49.713 327 95s-34.383 82-76.796 82H192" stroke="#2E2E2E" stroke-width="2"/><path d="M242 13h47.425C323.984 13 352 49.713 352 95s-28.016 82-62.575 82H242" stroke="#2E2E2E" stroke-width="2"/><path d="M322 25h49.581C407.711 25 437 56.34 437 95s-29.289 70-65.419 70H322" stroke="#2E2E2E" stroke-width="2"/><path d="M365 25h40.096C434.314 25 458 56.34 458 95s-23.686 70-52.904 70H365" stroke="#2E2E2E" stroke-width="2"/><circle cx="95" cy="95" r="76" stroke="#2E2E2E" stroke-width="2"/><path d="M107 170c-41.421 0-75-33.579-75-75s33.579-75 75-75" stroke="#2E2E2E" stroke-width="2"/><circle cx="100" cy="95" r="30" stroke="#2E2E2E" stroke-width="2"/><circle cx="83" cy="95" r="7" stroke="#2E2E2E" stroke-width="2"/><path d="M42.65 95.729a26.642 26.642 0 01-.437-.641c.197-.278.48-.674.846-1.17a112.62 112.62 0 013.406-4.38c2.962-3.629 7.247-8.466 12.538-13.3C69.62 66.538 84.126 57 100.028 57c15.902 0 30.408 9.538 41.025 19.238 5.291 4.834 9.576 9.671 12.538 13.3a113.263 113.263 0 013.406 4.38c.329.446.591.81.783 1.082-.192.272-.454.636-.783 1.083a112.997 112.997 0 01-3.406 4.378c-2.962 3.63-7.247 8.467-12.538 13.301-10.617 9.7-25.123 19.238-41.025 19.238-15.898 0-30.77-9.857-41.578-19.726a125.517 125.517 0 01-12.605-13.359c-1.445-1.782-2.526-3.23-3.195-4.186zM446 51h93.5c24.577 0 44.5 19.923 44.5 44.5v0c0 24.577-19.923 44.5-44.5 44.5H446" stroke="#2E2E2E" stroke-width="2"/><path d="M542 51h15.5c24.577 0 44.5 19.923 44.5 44.5v0c0 24.577-19.923 44.5-44.5 44.5H542M370 165v17a2 2 0 01-2 2h-37a2 2 0 01-2-2v-17M370 184v366a2 2 0 01-2 2h-37a2 2 0 01-2-2V184M180 55h44.5M180 137h44.5M189 95h43M317 55h27M316 137h27M326 95h27M437 95h21M107 552l222-369v185.901L151.4 552H107zM592 556L370 183v187.916L547.6 556H592z" stroke="#2E2E2E" stroke-width="2"/></svg>