<svg width="223" height="237" fill="none" xmlns="http://www.w3.org/2000/svg"><path d="M126.378 1h65.224l29.399 21.743v13.196h-94.623V1z" stroke="#2E2E2E" stroke-width="2"/><path stroke="#2E2E2E" stroke-width="2" d="M162.354 35.887h23.698V235h-23.698zM187.052 169.305H163.41M132.572 9.234h35.977"/><path d="M173.52 170.56c0-35.59-28.909-64.443-64.501-64.443-35.656 0-64.617 28.905-64.617 64.559v55.881a8.445 8.445 0 008.445 8.445h56.23c35.591 0 64.443-28.852 64.443-64.442z" fill="#fff" stroke="#2E2E2E" stroke-width="2"/><path d="M77.672 170.234c0 17.428 14.153 31.559 31.616 31.559s31.616-14.131 31.616-31.559c0-17.427-14.153-31.558-31.616-31.558s-31.616 14.131-31.616 31.558z" fill="#fff" stroke="#2E2E2E" stroke-width="2"/><path d="M87.76 170.235c0 5.323 1.98 10.456 5.554 14.406a21.556 21.556 0 0028.716 2.913 21.482 21.482 0 008.343-12.997 21.454 21.454 0 00-2.537-15.227 21.526 21.526 0 00-12.109-9.6 21.564 21.564 0 00-15.433.981 21.505 21.505 0 00-10.792 11.055M49.926 170.233a59.373 59.373 0 0112.208-36.073 59.157 59.157 0 0113.1-12.548m84.935 18.993a59.137 59.137 0 00-28.555-25.118 58.938 58.938 0 00-24.124-4.491M88.087 109.349l-3.066-3.755a7 7 0 00-9.435-1.309l-23.523 16.459a7 7 0 00-1.5 10.049l3.603 4.603M44.38 222.656H1.002M1 219.723v9.767" stroke="#2E2E2E" stroke-width="2"/></svg>