<svg width="203" height="244" fill="none" xmlns="http://www.w3.org/2000/svg"><mask id="a" fill="#fff"><path fill-rule="evenodd" clip-rule="evenodd" d="M48.846 144c0-24.449 12.587-46.793 32.672-59.6 5.848-31.697 21.279-61.312 44.404-84.4 23.125 23.088 38.556 52.702 44.404 84.4C190.411 97.206 203 119.55 203 144l-30.806-11.933-3.441 68.7a2 2 0 01-1.997 1.9H85.088a2 2 0 01-1.997-1.9l-3.44-68.7L48.845 144z"/></mask><path fill-rule="evenodd" clip-rule="evenodd" d="M48.846 144c0-24.449 12.587-46.793 32.672-59.6 5.848-31.697 21.279-61.312 44.404-84.4 23.125 23.088 38.556 52.702 44.404 84.4C190.411 97.206 203 119.55 203 144l-30.806-11.933-3.441 68.7a2 2 0 01-1.997 1.9H85.088a2 2 0 01-1.997-1.9l-3.44-68.7L48.845 144z" fill="#fff"/><path d="M81.518 84.4l1.075 1.687.734-.468.157-.855-1.966-.363zM48.846 144h-2v2.92l2.722-1.055-.722-1.865zM125.922 0l1.413-1.415-1.413-1.411-1.413 1.41L125.922 0zm44.404 84.4l-1.967.363.158.855.734.468 1.075-1.686zM203 144l-.723 1.865L205 146.92V144h-2zm-30.806-11.933l.722-1.865-2.581-1-.139 2.765 1.998.1zm-3.441 68.7l-1.997-.1 1.997.1zm-85.662 0l1.997-.1-1.997.1zm-3.44-68.7l1.997-.1-.139-2.765-2.581 1 .722 1.865zm.791-49.353C59.79 95.884 46.846 118.858 46.846 144h4c0-23.757 12.23-45.469 31.747-57.913l-2.15-3.373zm44.067-84.13c-23.414 23.377-39.037 53.36-44.958 85.454l3.933.726c5.775-31.302 21.015-60.55 43.851-83.349l-2.826-2.83zm47.784 85.453c-5.921-32.094-21.544-62.076-44.958-85.452l-2.826 2.83c22.836 22.8 38.075 52.046 43.85 83.348l3.934-.726zM205 144c0-25.142-12.945-48.118-33.599-61.286l-2.15 3.372C188.768 98.53 201 120.243 201 144h4zm-33.529-10.068l30.806 11.933 1.445-3.73-30.806-11.933-1.445 3.73zm-.72 66.935l3.44-68.7-3.995-.2-3.44 68.7 3.995.2zm-3.995 3.8a4 4 0 003.995-3.8l-3.995-.2v4zm-81.668 0h81.668v-4H85.088v4zm-3.995-3.8a4 4 0 003.995 3.8v-4l-3.995.2zm-3.44-68.7l3.44 68.7 3.995-.2-3.44-68.7-3.995.2zm-28.085 13.698l30.805-11.933-1.445-3.73-30.805 11.933 1.445 3.73z" fill="#2E2E2E" mask="url(#a)"/><path d="M126.686 166.859v60.953M115.238 181.336v36.571M138.134 185.902v37.334" stroke="#2E2E2E" stroke-width="2"/><path d="M154.687 91.43c0 15.856-12.876 28.714-28.762 28.714-15.887 0-28.763-12.858-28.763-28.715s12.876-28.714 28.763-28.714c15.886 0 28.762 12.857 28.762 28.714z" fill="#fff" stroke="#2E2E2E" stroke-width="2"/><path d="M144.001 91.427c0 9.966-8.093 18.047-18.079 18.047s-18.078-8.081-18.078-18.047c0-9.966 8.092-18.048 18.078-18.048 9.986 0 18.079 8.082 18.079 18.048z" fill="#fff" stroke="#2E2E2E" stroke-width="2"/><mask id="b" fill="#fff"><path fill-rule="evenodd" clip-rule="evenodd" d="M63.252 143.777c-.713 6.035-5.856 10.717-12.096 10.717s-11.383-4.682-12.096-10.717c-9.919 2.4-18.708 7.684-25.425 14.913 3.51 2.134 5.853 5.988 5.853 10.388 0 6.713-5.453 12.154-12.18 12.154-1.982 0-3.854-.472-5.509-1.311A51.007 51.007 0 000 193.389c0 4.661.626 9.175 1.798 13.465a12.14 12.14 0 015.511-1.313c6.727 0 12.18 5.442 12.18 12.154 0 4.402-2.345 8.258-5.857 10.39 6.717 7.231 15.508 12.516 25.428 14.916.71-6.037 5.855-10.721 12.096-10.721s11.386 4.684 12.096 10.721c9.92-2.4 18.711-7.685 25.428-14.916-3.51-2.133-5.856-5.988-5.856-10.39 0-6.712 5.454-12.154 12.18-12.154 1.983 0 3.856.473 5.51 1.312a50.97 50.97 0 001.798-13.464c0-4.661-.626-9.177-1.799-13.468a12.147 12.147 0 01-5.51 1.311c-6.727 0-12.18-5.441-12.18-12.154 0-4.4 2.344-8.255 5.854-10.388-6.717-7.229-15.506-12.513-25.425-14.913z"/></mask><path fill-rule="evenodd" clip-rule="evenodd" d="M63.252 143.777c-.713 6.035-5.856 10.717-12.096 10.717s-11.383-4.682-12.096-10.717c-9.919 2.4-18.708 7.684-25.425 14.913 3.51 2.134 5.853 5.988 5.853 10.388 0 6.713-5.453 12.154-12.18 12.154-1.982 0-3.854-.472-5.509-1.311A51.007 51.007 0 000 193.389c0 4.661.626 9.175 1.798 13.465a12.14 12.14 0 015.511-1.313c6.727 0 12.18 5.442 12.18 12.154 0 4.402-2.345 8.258-5.857 10.39 6.717 7.231 15.508 12.516 25.428 14.916.71-6.037 5.855-10.721 12.096-10.721s11.386 4.684 12.096 10.721c9.92-2.4 18.711-7.685 25.428-14.916-3.51-2.133-5.856-5.988-5.856-10.39 0-6.712 5.454-12.154 12.18-12.154 1.983 0 3.856.473 5.51 1.312a50.97 50.97 0 001.798-13.464c0-4.661-.626-9.177-1.799-13.468a12.147 12.147 0 01-5.51 1.311c-6.727 0-12.18-5.441-12.18-12.154 0-4.4 2.344-8.255 5.854-10.388-6.717-7.229-15.506-12.513-25.425-14.913z" fill="#fff"/><path d="M63.252 143.777l.47-1.944-2.192-.53-.264 2.24 1.986.234zm-24.192 0l1.987-.234-.265-2.24-2.192.53.47 1.944zM13.635 158.69l-1.465-1.361-1.67 1.797 2.097 1.274 1.038-1.71zM1.8 179.921l.905-1.784-2.187-1.108-.647 2.365 1.93.527zm0 26.933l-1.93.527.646 2.365 2.188-1.109-.905-1.783zm11.833 21.231l-1.038-1.709-2.097 1.273 1.67 1.798 1.465-1.362zm25.428 14.916l-.47 1.944 2.192.531.264-2.241-1.986-.234zm24.192 0l-1.986.234.264 2.241 2.193-.531-.47-1.944zm25.428-14.916l1.466 1.361 1.67-1.797-2.097-1.273-1.038 1.709zm11.834-21.232l-.904 1.784 2.187 1.109.647-2.366-1.93-.527zm-.001-26.932l1.929-.528-.646-2.365-2.187 1.109.904 1.784zM88.677 158.69l1.039 1.709 2.096-1.274-1.67-1.796-1.465 1.361zm-37.52-2.196c7.261 0 13.25-5.449 14.081-12.482l-3.972-.469c-.595 5.037-4.893 8.951-10.11 8.951v4zm-14.083-12.482c.83 7.033 6.82 12.482 14.082 12.482v-4c-5.217 0-9.515-3.914-10.11-8.951l-3.972.469zM15.1 160.052c6.457-6.949 14.903-12.026 24.43-14.331l-.94-3.888c-10.31 2.495-19.443 7.987-26.42 15.496l2.93 2.723zm-2.503.348c2.938 1.786 4.891 5.006 4.891 8.678h4c0-5.129-2.734-9.617-6.814-12.097l-2.077 3.419zm4.891 8.678c0 5.604-4.553 10.154-10.18 10.154v4c7.828 0 14.18-6.333 14.18-14.154h-4zm-10.18 10.154c-1.661 0-3.224-.395-4.604-1.095l-1.809 3.568a14.155 14.155 0 006.413 1.527v-4zM2 193.389a49 49 0 011.729-12.94l-3.859-1.055A53.001 53.001 0 00-2 193.389h4zm1.727 12.937A49.001 49.001 0 012 193.389h-4c0 4.841.65 9.532 1.869 13.992l3.858-1.055zm3.582-2.785c-2.305 0-4.487.551-6.415 1.529l1.809 3.567c1.38-.7 2.944-1.096 4.606-1.096v-4zm14.18 14.154c0-7.821-6.353-14.154-14.18-14.154v4c5.626 0 10.18 4.55 10.18 10.154h4zm-6.819 12.1c4.083-2.48 6.819-6.969 6.819-12.1h-4c0 3.674-1.954 6.895-4.895 8.681l2.077 3.419zm24.86 11.262c-9.529-2.305-17.976-7.383-24.432-14.333l-2.93 2.723c6.977 7.51 16.11 13.004 26.422 15.498l.94-3.888zm11.626-10.777c-7.264 0-13.255 5.451-14.082 12.488l3.972.467c.593-5.039 4.892-8.955 10.11-8.955v-4zm14.083 12.488c-.828-7.036-6.819-12.488-14.083-12.488v4c5.219 0 9.517 3.916 10.11 8.955l3.973-.467zm21.976-16.044c-6.457 6.95-14.904 12.028-24.433 14.334l.94 3.887c10.312-2.494 19.446-7.988 26.424-15.499l-2.93-2.722zm-6.39-9.029c0 5.131 2.735 9.62 6.817 12.099l2.077-3.418a10.143 10.143 0 01-4.894-8.681h-4zm14.18-14.154c-7.828 0-14.18 6.333-14.18 14.154h4c0-5.604 4.553-10.154 10.18-10.154v-4zm6.414 1.528a14.149 14.149 0 00-6.415-1.528v4c1.662 0 3.225.396 4.606 1.096l1.809-3.568zm-1.107-11.68c0 4.481-.601 8.818-1.727 12.937l3.859 1.054a53.033 53.033 0 001.868-13.991h-4zm-1.728-12.941a49 49 0 011.728 12.941h4c0-4.841-.65-9.535-1.87-13.996l-3.858 1.055zm-3.58 2.784c2.303 0 4.485-.55 6.413-1.528l-1.808-3.567c-1.38.7-2.944 1.095-4.606 1.095v4zm-14.18-14.154c0 7.821 6.352 14.154 14.18 14.154v-4c-5.627 0-10.18-4.55-10.18-10.154h-4zm6.814-12.097c-4.08 2.48-6.815 6.968-6.815 12.097h4c0-3.672 1.954-6.893 4.893-8.679l-2.078-3.418zm-24.856-11.26c9.527 2.305 17.973 7.382 24.43 14.33l2.93-2.722c-6.977-7.509-16.11-13.001-26.42-15.496l-.94 3.888z" fill="#2E2E2E" mask="url(#b)"/><path d="M74.03 193.384c0 12.609-10.239 22.833-22.873 22.833s-22.873-10.224-22.873-22.833c0-12.609 10.24-22.833 22.873-22.833 12.634 0 22.873 10.224 22.873 22.833z" fill="#fff" stroke="#2E2E2E" stroke-width="2"/><path d="M62.825 193.388c0 6.431-5.222 11.647-11.668 11.647-6.445 0-11.667-5.216-11.667-11.647 0-6.43 5.222-11.646 11.667-11.646 6.446 0 11.668 5.216 11.668 11.646z" fill="#fff" stroke="#2E2E2E" stroke-width="2"/><path d="M35.565 176.121l7.796 7.782M66.26 176.121l-7.796 7.782M66.26 210.895l-7.796-7.783M74.847 193.387H63.823M38.795 193.387H27.77M35.565 210.895l7.796-7.783" stroke="#2E2E2E" stroke-width="2"/></svg>