<svg width="251" height="226" fill="none" xmlns="http://www.w3.org/2000/svg"><path d="M120.08 1H250v224H82v-76.16M120.08 1v38.08H82M120.08 1L82 39.08m0 0v82.32" stroke="#2E2E2E" stroke-width="2"/><path d="M131.711 84H116v101h101v-14.589M142.933 84H217v78.556" stroke="#2E2E2E" stroke-width="2"/><path d="M156.802 84v27.273m0 0H202m-45.198 0V134H147M156 185v-12.517M116 152h40v11.379M115 73h81M115 56h43" stroke="#2E2E2E" stroke-width="2"/><circle r="14.64" transform="matrix(-1 0 0 1 55.13 61.612)" stroke="#2E2E2E" stroke-width="2"/><circle r="6.82" transform="matrix(-1 0 0 1 55.131 61.613)" stroke="#2E2E2E" stroke-width="2"/><path d="M58.928 75.993l16.624 62.045 5.153 4.402 11.566 43.162 7.083 26.437 1.672-26.884L67.42 69.43M50.707 75.993l-16.625 62.045-5.153 4.402-11.565 43.162-7.084 26.437-1.671-26.884L42.215 69.43M58.482 48.206V30.332c0-1.851-1.5-3.352-3.35-3.352v0c-1.852 0-3.352 1.5-3.352 3.352v17.874M83.06 148.746H27.204M18.266 148.746H8.212M8.212 142.043v13.405M205 73h12M166 56h51" stroke="#2E2E2E" stroke-width="2"/></svg>