<svg width="267" height="262" fill="none" xmlns="http://www.w3.org/2000/svg"><rect x="229.247" y="194.211" width="180.684" height="193.211" rx="4" transform="rotate(-180 229.247 194.211)" fill="#fff" stroke="#2E2E2E" stroke-width="2"/><rect x="266" y="236.27" width="180.684" height="209.388" rx="4" transform="rotate(-180 266 236.27)" fill="#fff" stroke="#2E2E2E" stroke-width="2"/><path d="M1 173.086h42.178v4.724a.818.818 0 01-.232.571l.715.698-.715-.698-4.914 5.032a3.76 3.76 0 00-1.057 2.939l4.378 52.719c.936 11.268-7.957 20.931-19.264 20.931-11.307 0-20.2-9.663-19.264-20.931l4.378-52.719a3.76 3.76 0 00-1.057-2.939l-4.913-5.032A.819.819 0 011 177.81v-4.724zM27 108.577v64.028H17V108.255l-.187-.261-2.75-3.834 4.264-22.344h7.346l4.264 22.344-2.75 3.834-.187.261v.322z" fill="#fff" stroke="#2E2E2E" stroke-width="2"/><path d="M12.948 184.242v73.717M38 184.578H6M31.23 184.242v73.717" stroke="#2E2E2E" stroke-width="2"/><path d="M75.457 160.267v-36.402l-5.764-4.542a21.548 21.548 0 01-8.218-16.924 21.547 21.547 0 018.217-16.923l5.765-4.542v21.655H96.24V80.934l5.764 4.542a21.547 21.547 0 018.218 16.923 21.548 21.548 0 01-8.218 16.924l-5.764 4.542v91.111l5.764 4.542a21.55 21.55 0 018.218 16.924 21.548 21.548 0 01-8.218 16.924l-5.764 4.542v-21.656H75.457v21.656l-5.764-4.542a21.548 21.548 0 01-8.218-16.924 21.55 21.55 0 018.217-16.924l5.765-4.542v-54.709z" fill="#fff" stroke="#2E2E2E" stroke-width="2"/><rect x="80.756" y="133.562" width="10.187" height="70.957" rx="5.094" fill="#fff" stroke="#2E2E2E" stroke-width="2"/><path d="M134.041 75.496h83.235M134.041 93.828h83.235M134.041 111.086h83.235" stroke="#2E2E2E" stroke-width="2"/></svg>