<svg width="182" height="70" fill="none" xmlns="http://www.w3.org/2000/svg"><path d="M5.358 32.145L0 33.953V58.32l2.844 2.068V36.02l2.514-.853v27.028l2.844 2.068V34.212l7.871-2.662V70l13.535-6.9V12.327L5.358 0v32.145zM8.202 4.65l18.562 9.432v47.235l-7.872 4.005V27.545l-10.69 3.618V4.65z" fill="url(#paint0_linear)"/><path d="M149.073 52.946c0-.543-.18-.956-.514-1.267-.334-.335-.822-.49-1.412-.49h-1.31V49.43h-.771v5.298h2.106c.591 0 1.053-.155 1.387-.491.36-.336.514-.776.514-1.292zm-3.236 1.033v-2.093h1.31c.359 0 .616.104.847.284.206.181.308.44.308.75s-.102.568-.308.75c-.205.206-.488.283-.822.283h-1.335v.026zm5.008-4.573h-.77v5.297h.77v-5.297zm-8.27 1.37v3.901h.77V49.38h-.616l-2.081 2.636-2.08-2.636h-.591v5.297h.771v-3.902l1.926 2.43 1.901-2.43zm-8.502-.75c.463 0 .848.155 1.182.465.334.31.513.698.565 1.188h-3.57c.051-.439.256-.826.616-1.162a1.642 1.642 0 011.207-.491zm2.466 2.325l.051-.387c0-.775-.231-1.396-.719-1.886a2.435 2.435 0 00-1.798-.75c-.693 0-1.284.258-1.798.801-.513.543-.77 1.189-.77 1.964 0 .775.257 1.421.77 1.964.514.542 1.13.8 1.85.8.256 0 .513-.05.77-.128s.462-.181.617-.259c.154-.077.308-.206.436-.336.129-.129.231-.206.257-.258.051-.052.077-.103.103-.13l-.488-.49-.18.206c-.128.155-.308.285-.591.44a1.89 1.89 0 01-.924.232c-.488 0-.925-.18-1.285-.517-.359-.361-.565-.749-.59-1.24l4.289-.026zm-10.248-2.222h1.849v4.574h.771v-4.574h1.875v-.723h-4.495v.723zm-5.368 1.912c0 .776.257 1.422.77 1.964a2.445 2.445 0 002.594.672c.257-.078.463-.18.617-.258.154-.104.308-.207.436-.336.155-.13.232-.207.283-.259.051-.051.077-.103.103-.129l-.54-.49-.179.206c-.129.155-.334.284-.591.44a1.77 1.77 0 01-.873.232c-.514 0-.951-.207-1.31-.595a2.08 2.08 0 01-.565-1.447c0-.568.179-1.06.565-1.447.359-.387.796-.594 1.31-.594.205 0 .385.026.565.103.179.052.334.13.436.207.103.078.231.155.308.284.103.104.155.181.18.207a.195.195 0 01.052.103l.539-.542-.231-.259c-.154-.18-.411-.361-.771-.517a2.523 2.523 0 00-1.155-.258c-.72 0-1.336.258-1.85.801a2.909 2.909 0 00-.693 1.912zm-2.029-2.635l-3.185 3.979v-3.98h-.771v5.298h.642l3.185-3.98v3.98h.771v-5.297h-.642zm-9.966 2.635c0 .776.257 1.422.771 1.964a2.443 2.443 0 002.594.672c.257-.078.462-.18.616-.258.154-.078.308-.207.463-.336.154-.13.231-.207.282-.259.051-.051.077-.103.103-.129l-.54-.49-.179.206c-.129.155-.334.284-.591.44a1.77 1.77 0 01-.873.232c-.514 0-.951-.207-1.31-.595a2.08 2.08 0 01-.565-1.447c0-.568.179-1.06.565-1.447.359-.387.796-.594 1.31-.594.205 0 .385.026.565.103.179.052.334.13.436.207.103.078.231.155.309.284.102.104.154.181.179.207a.195.195 0 01.052.103l.539-.542-.231-.259c-.154-.18-.411-.361-.771-.517a2.52 2.52 0 00-1.155-.258c-.72 0-1.336.258-1.85.801a2.8 2.8 0 00-.719 1.912zm-5.599-2.015c.462 0 .847.155 1.181.465.334.31.514.698.565 1.188h-3.57c.052-.439.257-.826.617-1.162.359-.336.745-.491 1.207-.491zm2.491 2.325l.052-.387c0-.775-.231-1.396-.719-1.886a2.436 2.436 0 00-1.798-.75c-.694 0-1.285.258-1.798.801-.514.543-.771 1.189-.771 1.964 0 .775.257 1.421.771 1.964.513.542 1.13.8 1.849.8.257 0 .514-.05.77-.128.257-.078.463-.181.617-.259.154-.077.308-.206.437-.336.128-.129.231-.206.256-.258.052-.052.077-.103.103-.13l-.488-.49-.18.206c-.128.155-.308.285-.59.44a1.893 1.893 0 01-.925.232c-.488 0-.925-.18-1.284-.517-.36-.361-.565-.749-.591-1.24l4.289-.026zm-8.167.595c0-.543-.18-.956-.514-1.267-.334-.335-.822-.49-1.413-.49h-1.31V49.43h-.77v5.298h2.106c.59 0 1.053-.155 1.387-.491.334-.336.514-.776.514-1.292zm-3.237 1.033v-2.093h1.31c.36 0 .617.104.848.284.205.181.308.44.308.75s-.103.568-.308.75c-.206.206-.488.283-.822.283h-1.336v.026zm4.983-4.573h-.77v5.297h.77v-5.297zm-8.27 5.297h.77v-5.297h-.77v2.273h-3.005v-2.273h-.77v5.297h.77v-2.326h3.005v2.326zm-9.53-.827l.078.103a.983.983 0 00.231.233c.103.103.231.18.36.284.154.078.308.155.539.233.206.051.437.103.642.103.668 0 1.259-.258 1.772-.801.514-.543.745-1.189.745-1.938 0-.75-.257-1.395-.77-1.938-.514-.543-1.105-.801-1.772-.801-.232 0-.437.026-.668.103-.206.078-.386.13-.514.233-.128.077-.257.18-.385.284-.129.104-.206.181-.231.233-.052.051-.052.077-.078.103v-.827h-.77v7.597h.77v-3.204h.052zm0-1.835c0-.542.18-1.007.566-1.42.385-.414.822-.621 1.284-.621.463 0 .848.207 1.207.594.36.388.54.879.54 1.447 0 .569-.18 1.034-.54 1.447-.36.388-.77.595-1.207.595-.462 0-.899-.207-1.284-.62-.385-.388-.565-.853-.565-1.422zm-4.648-2.015c.462 0 .848.155 1.181.465.334.31.514.698.566 1.188h-3.57c.05-.439.256-.826.616-1.162a1.642 1.642 0 011.207-.491zm2.466 2.325l.051-.387c0-.775-.231-1.396-.72-1.886a2.434 2.434 0 00-1.797-.75c-.694 0-1.284.258-1.798.801s-.77 1.189-.77 1.964c0 .775.256 1.421.77 1.964.514.542 1.13.8 1.85.8.256 0 .513-.05.77-.128s.462-.181.616-.259a2.8 2.8 0 00.437-.336c.128-.129.231-.206.257-.258.051-.052.077-.103.103-.13l-.489-.49-.18.206c-.128.155-.307.285-.59.44-.283.155-.59.232-.925.232-.488 0-.924-.18-1.284-.517-.36-.361-.565-.749-.59-1.24l4.289-.026zm-7.192 2.352h.77v-5.297h-.77v2.273H69.22v-2.273h-.77v5.297h.77v-2.326h3.005v2.326zm-7.654-4.677c.462 0 .848.155 1.182.465.334.31.513.698.565 1.188h-3.57c.05-.439.256-.826.616-1.162a1.642 1.642 0 011.207-.491zm2.466 2.325l.051-.387c0-.775-.231-1.396-.719-1.886a2.434 2.434 0 00-1.798-.75c-.693 0-1.284.258-1.798.801s-.77 1.189-.77 1.964c0 .775.257 1.421.77 1.964.514.542 1.13.8 1.85.8.256 0 .513-.05.77-.128s.462-.181.616-.259c.154-.077.309-.206.437-.336.129-.129.231-.206.257-.258.051-.052.077-.103.103-.13l-.488-.49-.18.206c-.129.155-.308.285-.59.44-.283.155-.592.232-.926.232-.488 0-.924-.18-1.284-.517-.36-.361-.565-.749-.59-1.24l4.289-.026zm-9.94.595v1.757h.77v-1.757l.771-.827 1.875 2.584h.873l-2.234-3.153 2.029-2.144h-.925l-2.363 2.532v-2.532h-.77v2.532l-2.363-2.532h-.925l2.029 2.144-2.26 3.153h.873l1.85-2.584.77.827zm-5.24 1.757h.77v-5.297h-.77v2.273h-3.005v-2.273h-.77v5.297h.77v-2.326h3.005v2.326zm-6.19-5.297l-3.185 3.979v-3.98h-.77v5.298h.642l3.185-3.98v3.98h.77v-5.297h-.642zM133.174 40.672h3.314l.488-7.571c.051-.93-.026-2.378-.026-2.378h.051s.463 1.086.848 2.068l2.722 6.15h2.851l2.723-6.176c.437-.982.822-2.042.822-2.042h.051s-.051 1.447-.026 2.378l.488 7.57h3.314l-1.259-13.979h-3.878l-3.005 7.21c-.308.8-.694 1.783-.694 1.783h-.051s-.36-1.008-.694-1.783l-2.953-7.21h-3.93l-1.156 13.98zm-14.023-6.977c0-2.584 1.849-4.367 4.109-4.367s4.135 1.783 4.135 4.367c0 2.61-1.875 4.367-4.135 4.367s-4.109-1.757-4.109-4.367zm-3.519 0c0 4.315 3.416 7.313 7.628 7.313s7.628-3.024 7.628-7.313c0-4.29-3.416-7.313-7.654-7.313-4.212-.026-7.602 3.023-7.602 7.313zm-13.279 6.977h3.467v-5.685h1.798l3.647 5.685h4.007l-4.957-7.261v-.052l4.418-6.667h-3.853l-3.365 5.35h-1.695v-5.35h-3.467v13.98zM89.87 31.964c.334-1.783 1.593-2.972 3.365-2.972 1.541 0 2.748 1.085 2.774 2.972H89.87zm-3.647 1.73c0 3.98 2.877 7.314 7.5 7.314 1.978 0 4.16-.75 5.6-1.99L97.96 36.51c-1.105.905-2.569 1.525-3.981 1.525-2.106 0-3.956-1.266-4.161-3.695h9.555c.05-.44.102-.904.102-1.344 0-3.695-2.183-6.64-6.164-6.64-4.187 0-7.089 3.023-7.089 7.338zM70.3 40.828c4.597-.13 6.215-3.644 6.215-9.742v-1.55h3.39v11.162h3.468V26.718H73.227v4.393c0 4.961-1.207 6.408-2.928 6.667v3.049zm-11.173-8.863c.334-1.783 1.592-2.972 3.365-2.972 1.54 0 2.748 1.085 2.774 2.972h-6.139zm-3.647 1.73c0 3.98 2.876 7.314 7.5 7.314 1.977 0 4.16-.75 5.599-1.99l-1.361-2.507c-1.105.905-2.569 1.525-3.981 1.525-2.107 0-3.956-1.266-4.161-3.695h9.554c.052-.44.103-.904.103-1.344 0-3.695-2.183-6.64-6.164-6.64-4.161 0-7.09 3.023-7.09 7.338zm-9.195 6.978h3.441V29.638h4.598v-2.972H41.712v2.972h4.572v11.034zM171.623 34.341c0-2.196 1.49-3.747 3.493-3.747 1.85 0 3.416 1.422 3.416 3.773 0 2.352-1.541 3.747-3.467 3.747-1.875.026-3.442-1.395-3.442-3.773zm-3.518-1.834c0 4.96 2.26 8.5 7.089 8.5 4.109 0 6.806-2.816 6.806-6.692 0-3.876-2.363-6.408-5.933-6.408-1.618 0-3.365.491-4.572 2.041h-.051c.128-2.403 1.695-3.695 4.058-4.677l5.291-2.04-1.028-2.817-4.803 1.886c-5.085 1.964-6.857 4.935-6.857 10.207zm-14.949 1.188c0 4.057 2.954 7.313 7.551 7.313 2.235 0 4.418-.879 5.728-2.274l-1.335-2.455c-1.028 1.008-2.62 1.783-4.084 1.783-2.671 0-4.341-2.041-4.341-4.393 0-2.377 1.67-4.34 4.212-4.34 1.362 0 2.723.62 3.596 1.498l1.541-2.377c-1.335-1.447-3.467-2.093-5.342-2.093-4.572 0-7.526 3.359-7.526 7.338z" fill="#006"/><defs><linearGradient id="paint0_linear" x1="25.244" y1="13.684" x2="4.373" y2="60.01" gradientUnits="userSpaceOnUse"><stop stop-color="#039"/><stop offset="1" stop-color="#90C"/></linearGradient></defs></svg>