<svg width="14" height="14" fill="none" xmlns="http://www.w3.org/2000/svg"><path d="M3.097.054L2.203.002a1.037 1.037 0 00-.77.282C1 .687.308 1.467.094 2.484-.223 3.999.268 5.855 1.538 7.71c1.27 1.856 3.638 4.825 7.824 6.094 1.35.408 2.41.133 3.23-.428.648-.445 1.095-1.158 1.256-1.965l.143-.714a.507.507 0 00-.26-.555L10.707 8.65a.444.444 0 00-.56.148l-1.188 1.648a.326.326 0 01-.381.122c-.813-.306-3.536-1.528-5.03-4.611a.389.389 0 01.044-.41L4.726 4.14a.524.524 0 00.075-.52L3.498.355a.466.466 0 00-.4-.301z" fill="#767676"/></svg>